<svg width="200" height="40" viewBox="0 0 200 40" fill="none" xmlns="http://www.w3.org/2000/svg">
  <path d="M100 35C100 35 95 25 85 25C75 25 70 30 70 35M100 35C100 35 105 25 115 25C125 25 130 30 130 35M100 5V35M100 5C90 5 80 10 75 20M100 5C110 5 120 10 125 20M85 35C80 35 75 32 75 28C75 20 90 15 100 15C110 15 125 20 125 28C125 32 120 35 115 35" stroke="#B59410" stroke-width="1.5" stroke-linecap="round"/>
  <circle cx="100" cy="5" r="1.5" fill="#B59410"/>
  <path d="M10 38H190" stroke="#B59410" stroke-width="0.5" stroke-dasharray="2 4"/>
</svg>
